%TF.GenerationSoftware,KiCad,Pcbnew,9.0.7*%
%TF.CreationDate,2026-01-20T14:16:48+02:00*%
%TF.ProjectId,Electronics Assignment 2,456c6563-7472-46f6-9e69-637320417373,rev?*%
%TF.SameCoordinates,Original*%
%TF.FileFunction,Copper,L1,Top*%
%TF.FilePolarity,Positive*%
%FSLAX46Y46*%
G04 Gerber Fmt 4.6, Leading zero omitted, Abs format (unit mm)*
G04 Created by KiCad (PCBNEW 9.0.7) date 2026-01-20 14:16:48*
%MOMM*%
%LPD*%
G01*
G04 APERTURE LIST*
G04 Aperture macros list*
%AMRoundRect*
0 Rectangle with rounded corners*
0 $1 Rounding radius*
0 $2 $3 $4 $5 $6 $7 $8 $9 X,Y pos of 4 corners*
0 Add a 4 corners polygon primitive as box body*
4,1,4,$2,$3,$4,$5,$6,$7,$8,$9,$2,$3,0*
0 Add four circle primitives for the rounded corners*
1,1,$1+$1,$2,$3*
1,1,$1+$1,$4,$5*
1,1,$1+$1,$6,$7*
1,1,$1+$1,$8,$9*
0 Add four rect primitives between the rounded corners*
20,1,$1+$1,$2,$3,$4,$5,0*
20,1,$1+$1,$4,$5,$6,$7,0*
20,1,$1+$1,$6,$7,$8,$9,0*
20,1,$1+$1,$8,$9,$2,$3,0*%
G04 Aperture macros list end*
%TA.AperFunction,SMDPad,CuDef*%
%ADD10R,1.000000X1.200000*%
%TD*%
%TA.AperFunction,ComponentPad*%
%ADD11O,1.700000X1.700000*%
%TD*%
%TA.AperFunction,SMDPad,CuDef*%
%ADD12R,2.000000X2.500000*%
%TD*%
%TA.AperFunction,SMDPad,CuDef*%
%ADD13R,1.500000X2.000000*%
%TD*%
%TA.AperFunction,SMDPad,CuDef*%
%ADD14RoundRect,0.250000X-0.650000X0.325000X-0.650000X-0.325000X0.650000X-0.325000X0.650000X0.325000X0*%
%TD*%
%TA.AperFunction,SMDPad,CuDef*%
%ADD15RoundRect,0.250000X0.650000X-0.325000X0.650000X0.325000X-0.650000X0.325000X-0.650000X-0.325000X0*%
%TD*%
%TA.AperFunction,SMDPad,CuDef*%
%ADD16RoundRect,0.150000X-0.825000X-0.150000X0.825000X-0.150000X0.825000X0.150000X-0.825000X0.150000X0*%
%TD*%
%TA.AperFunction,SMDPad,CuDef*%
%ADD17RoundRect,0.250000X-0.625000X0.312500X-0.625000X-0.312500X0.625000X-0.312500X0.625000X0.312500X0*%
%TD*%
%TA.AperFunction,Conductor*%
%ADD18C,0.250000*%
%TD*%
G04 APERTURE END LIST*
D10*
%TO.P,SW1,1,A*%
%TO.N,/VCC*%
X142000000Y-105100000D03*
%TO.P,SW1,2,B*%
%TO.N,Net-(SW1-B)*%
X139500000Y-105100000D03*
%TO.P,SW1,3,C*%
%TO.N,unconnected-(SW1-C-Pad3)*%
X137000000Y-105100000D03*
%TD*%
D11*
%TO.P,J2,1,Pin_1*%
%TO.N,/VCC*%
X133500000Y-102380000D03*
%TO.P,J2,2,Pin_2*%
%TO.N,/GND*%
X133500000Y-104920000D03*
%TO.P,J2,3,Pin_3*%
X133500000Y-107460000D03*
%TO.P,J2,4,Pin_4*%
%TO.N,/BUZZER+*%
X133500000Y-110000000D03*
%TD*%
D12*
%TO.P,RV1,2,2*%
%TO.N,Net-(U1-THR)*%
X149500000Y-108750000D03*
D13*
%TO.P,RV1,1,1*%
%TO.N,Net-(U1-TR)*%
X150660000Y-114250000D03*
%TO.P,RV1,3,3*%
%TO.N,Net-(U1-DIS)*%
X148350000Y-114250000D03*
%TD*%
D14*
%TO.P,C2,1*%
%TO.N,Net-(U1-Q)*%
X136500000Y-114050000D03*
%TO.P,C2,2*%
%TO.N,/BUZZER+*%
X136500000Y-117000000D03*
%TD*%
D15*
%TO.P,C3,1*%
%TO.N,/GND*%
X140475000Y-117025000D03*
%TO.P,C3,2*%
%TO.N,Net-(U1-TR)*%
X140475000Y-114075000D03*
%TD*%
D14*
%TO.P,C1,1*%
%TO.N,Net-(U1-CV)*%
X144475000Y-114075000D03*
%TO.P,C1,2*%
%TO.N,/GND*%
X144475000Y-117025000D03*
%TD*%
D16*
%TO.P,U1,1,GND*%
%TO.N,/GND*%
X138025000Y-107595000D03*
%TO.P,U1,2,TR*%
%TO.N,Net-(U1-TR)*%
X138025000Y-108865000D03*
%TO.P,U1,3,Q*%
%TO.N,Net-(U1-Q)*%
X138025000Y-110135000D03*
%TO.P,U1,4,R*%
%TO.N,Net-(SW1-B)*%
X138025000Y-111405000D03*
%TO.P,U1,5,CV*%
%TO.N,Net-(U1-CV)*%
X142975000Y-111405000D03*
%TO.P,U1,6,THR*%
%TO.N,Net-(U1-THR)*%
X142975000Y-110135000D03*
%TO.P,U1,7,DIS*%
%TO.N,Net-(U1-DIS)*%
X142975000Y-108865000D03*
%TO.P,U1,8,VCC*%
%TO.N,Net-(SW1-B)*%
X142975000Y-107595000D03*
%TD*%
D17*
%TO.P,R1,1*%
%TO.N,Net-(SW1-B)*%
X147500000Y-103537500D03*
%TO.P,R1,2*%
%TO.N,Net-(U1-DIS)*%
X147500000Y-106462500D03*
%TD*%
D18*
%TO.N,/VCC*%
X136164000Y-102380000D02*
X133500000Y-102380000D01*
%TO.N,/BUZZER+*%
X133500000Y-114000000D02*
X133500000Y-110000000D01*
X136500000Y-117000000D02*
X133500000Y-114000000D01*
%TO.N,/VCC*%
X137284000Y-103500000D02*
X136164000Y-102380000D01*
X142000000Y-105100000D02*
X142000000Y-104821860D01*
X142000000Y-104821860D02*
X140678140Y-103500000D01*
X140678140Y-103500000D02*
X137284000Y-103500000D01*
%TO.N,Net-(U1-DIS)*%
X148350000Y-113650000D02*
X148350000Y-114250000D01*
X152500000Y-109500000D02*
X148350000Y-113650000D01*
X150962500Y-106462500D02*
X152500000Y-108000000D01*
X152500000Y-108000000D02*
X152500000Y-109500000D01*
X147500000Y-106462500D02*
X150962500Y-106462500D01*
%TO.N,Net-(U1-TR)*%
X150205000Y-116000000D02*
X150660000Y-115545000D01*
X150660000Y-115545000D02*
X150660000Y-114250000D01*
X145500000Y-115500000D02*
X146000000Y-116000000D01*
X140500000Y-115500000D02*
X145500000Y-115500000D01*
X146000000Y-116000000D02*
X150205000Y-116000000D01*
X140475000Y-115475000D02*
X140500000Y-115500000D01*
X140475000Y-114075000D02*
X140475000Y-115475000D01*
%TO.N,Net-(U1-THR)*%
X148115000Y-110135000D02*
X149500000Y-108750000D01*
X142975000Y-110135000D02*
X148115000Y-110135000D01*
%TO.N,Net-(U1-DIS)*%
X145097500Y-108865000D02*
X142975000Y-108865000D01*
X147500000Y-106462500D02*
X145097500Y-108865000D01*
%TO.N,Net-(SW1-B)*%
X147032500Y-103537500D02*
X147500000Y-103537500D01*
X142975000Y-107595000D02*
X147032500Y-103537500D01*
X139500000Y-105100000D02*
X139500000Y-107500000D01*
X139500000Y-107500000D02*
X139595000Y-107595000D01*
%TO.N,/GND*%
X144975000Y-117025000D02*
X145000000Y-117000000D01*
X144475000Y-117025000D02*
X144975000Y-117025000D01*
X144500000Y-117000000D02*
X144475000Y-117025000D01*
%TO.N,Net-(U1-CV)*%
X144475000Y-112905000D02*
X144475000Y-114075000D01*
X142975000Y-111405000D02*
X144475000Y-112905000D01*
%TO.N,Net-(U1-Q)*%
X136500000Y-114050000D02*
X136500000Y-110685001D01*
X137050001Y-110135000D02*
X138025000Y-110135000D01*
X136500000Y-110685001D02*
X137050001Y-110135000D01*
%TO.N,Net-(U1-TR)*%
X135635000Y-108865000D02*
X138025000Y-108865000D01*
X136000000Y-115500000D02*
X135274000Y-114774000D01*
X140475000Y-114075000D02*
X139050000Y-115500000D01*
X139050000Y-115500000D02*
X136000000Y-115500000D01*
X135274000Y-109226000D02*
X135635000Y-108865000D01*
X135274000Y-114774000D02*
X135274000Y-109226000D01*
%TO.N,Net-(U1-DIS)*%
X142525000Y-108545000D02*
X142550000Y-108570000D01*
%TO.N,Net-(U1-THR)*%
X144885000Y-110135000D02*
X142975000Y-110135000D01*
%TO.N,Net-(SW1-B)*%
X138025000Y-111405000D02*
X138999999Y-111405000D01*
X139595000Y-107595000D02*
X142975000Y-107595000D01*
X138999999Y-111405000D02*
X139500000Y-110904999D01*
X139500000Y-110904999D02*
X139500000Y-107500000D01*
X142975000Y-107595000D02*
X143405000Y-107595000D01*
%TD*%
%TA.AperFunction,Conductor*%
%TO.N,/GND*%
G36*
X152980211Y-100539802D02*
G01*
X153025966Y-100592606D01*
X153037172Y-100644117D01*
X153037172Y-107353219D01*
X153017487Y-107420258D01*
X152964683Y-107466013D01*
X152895525Y-107475957D01*
X152831969Y-107446932D01*
X152825491Y-107440900D01*
X151458334Y-106073744D01*
X151448359Y-106063769D01*
X151448358Y-106063767D01*
X151361233Y-105976642D01*
X151309883Y-105942331D01*
X151258786Y-105908188D01*
X151258787Y-105908188D01*
X151258785Y-105908187D01*
X151219322Y-105891842D01*
X151178292Y-105874847D01*
X151144952Y-105861037D01*
X151084529Y-105849018D01*
X151079806Y-105848078D01*
X151079804Y-105848078D01*
X151024110Y-105837000D01*
X151024107Y-105837000D01*
X151024106Y-105837000D01*
X148882928Y-105837000D01*
X148815889Y-105817315D01*
X148777389Y-105778097D01*
X148758747Y-105747873D01*
X148717712Y-105681344D01*
X148593656Y-105557288D01*
X148444334Y-105465186D01*
X148277797Y-105410001D01*
X148277795Y-105410000D01*
X148175010Y-105399500D01*
X146824998Y-105399500D01*
X146824981Y-105399501D01*
X146722203Y-105410000D01*
X146722200Y-105410001D01*
X146555668Y-105465185D01*
X146555663Y-105465187D01*
X146406342Y-105557289D01*
X146282289Y-105681342D01*
X146190187Y-105830663D01*
X146190185Y-105830668D01*
X146180122Y-105861037D01*
X146135001Y-105997203D01*
X146135001Y-105997204D01*
X146135000Y-105997204D01*
X146124500Y-106099983D01*
X146124500Y-106825001D01*
X146124502Y-106825022D01*
X146130413Y-106882891D01*
X146117643Y-106951583D01*
X146094736Y-106983172D01*
X144874729Y-108203181D01*
X144813406Y-108236666D01*
X144787048Y-108239500D01*
X144480692Y-108239500D01*
X144413653Y-108219815D01*
X144367898Y-108167011D01*
X144357954Y-108097853D01*
X144373959Y-108052380D01*
X144373960Y-108052379D01*
X144401744Y-108005398D01*
X144447598Y-107847569D01*
X144450500Y-107810694D01*
X144450500Y-107379306D01*
X144447598Y-107342431D01*
X144401744Y-107184602D01*
X144401741Y-107184597D01*
X144398647Y-107177446D01*
X144399801Y-107176946D01*
X144384558Y-107116880D01*
X144406715Y-107050616D01*
X144420786Y-107033802D01*
X146817771Y-104636818D01*
X146879094Y-104603333D01*
X146905452Y-104600499D01*
X148175002Y-104600499D01*
X148175008Y-104600499D01*
X148277797Y-104589999D01*
X148444334Y-104534814D01*
X148593656Y-104442712D01*
X148717712Y-104318656D01*
X148809814Y-104169334D01*
X148864999Y-104002797D01*
X148875500Y-103900009D01*
X148875499Y-103174992D01*
X148864999Y-103072203D01*
X148809814Y-102905666D01*
X148717712Y-102756344D01*
X148593656Y-102632288D01*
X148444334Y-102540186D01*
X148277797Y-102485001D01*
X148277795Y-102485000D01*
X148175010Y-102474500D01*
X146824998Y-102474500D01*
X146824981Y-102474501D01*
X146722203Y-102485000D01*
X146722200Y-102485001D01*
X146555668Y-102540185D01*
X146555663Y-102540187D01*
X146406342Y-102632289D01*
X146282289Y-102756342D01*
X146190187Y-102905663D01*
X146190186Y-102905666D01*
X146135001Y-103072203D01*
X146135001Y-103072204D01*
X146135000Y-103072204D01*
X146124500Y-103174983D01*
X146124500Y-103509546D01*
X146104815Y-103576585D01*
X146088181Y-103597227D01*
X145292893Y-104392516D01*
X143708768Y-105976642D01*
X142927229Y-106758181D01*
X142865906Y-106791666D01*
X142839548Y-106794500D01*
X142084298Y-106794500D01*
X142047432Y-106797401D01*
X142047426Y-106797402D01*
X141889606Y-106843254D01*
X141889603Y-106843255D01*
X141748137Y-106926917D01*
X141748129Y-106926923D01*
X141741872Y-106933181D01*
X141680549Y-106966666D01*
X141654191Y-106969500D01*
X140249500Y-106969500D01*
X140182461Y-106949815D01*
X140136706Y-106897011D01*
X140125500Y-106845500D01*
X140125500Y-106273466D01*
X140145185Y-106206427D01*
X140197989Y-106160672D01*
X140206156Y-106157288D01*
X140242331Y-106143796D01*
X140357546Y-106057546D01*
X140443796Y-105942331D01*
X140494091Y-105807483D01*
X140500500Y-105747873D01*
X140500499Y-104506310D01*
X140520184Y-104439272D01*
X140572987Y-104393517D01*
X140642146Y-104383573D01*
X140705702Y-104412598D01*
X140712180Y-104418630D01*
X140963181Y-104669631D01*
X140996666Y-104730954D01*
X140999500Y-104757312D01*
X140999500Y-105747870D01*
X140999501Y-105747876D01*
X141005908Y-105807483D01*
X141056202Y-105942328D01*
X141056206Y-105942335D01*
X141142452Y-106057544D01*
X141142455Y-106057547D01*
X141257664Y-106143793D01*
X141257671Y-106143797D01*
X141392517Y-106194091D01*
X141392516Y-106194091D01*
X141399444Y-106194835D01*
X141452127Y-106200500D01*
X142547872Y-106200499D01*
X142607483Y-106194091D01*
X142742331Y-106143796D01*
X142857546Y-106057546D01*
X142943796Y-105942331D01*
X142994091Y-105807483D01*
X143000500Y-105747873D01*
X143000499Y-104452128D01*
X142995087Y-104401782D01*
X142994091Y-104392516D01*
X142943797Y-104257671D01*
X142943793Y-104257664D01*
X142857547Y-104142455D01*
X142857544Y-104142452D01*
X142742335Y-104056206D01*
X142742328Y-104056202D01*
X142607482Y-104005908D01*
X142607483Y-104005908D01*
X142547883Y-103999501D01*
X142547881Y-103999500D01*
X142547873Y-103999500D01*
X142547865Y-103999500D01*
X142113593Y-103999500D01*
X142046554Y-103979815D01*
X142025912Y-103963181D01*
X141173962Y-103111232D01*
X141163999Y-103101269D01*
X141163998Y-103101267D01*
X141076873Y-103014142D01*
X141025649Y-102979915D01*
X140974426Y-102945688D01*
X140893092Y-102911999D01*
X140860592Y-102898537D01*
X140800169Y-102886518D01*
X140795500Y-102885589D01*
X140795499Y-102885589D01*
X140739750Y-102874500D01*
X140739747Y-102874500D01*
X140739746Y-102874500D01*
X137594452Y-102874500D01*
X137527413Y-102854815D01*
X137506771Y-102838181D01*
X136657150Y-101988560D01*
X136649860Y-101981270D01*
X136649858Y-101981267D01*
X136562733Y-101894142D01*
X136511509Y-101859915D01*
X136460286Y-101825688D01*
X136460283Y-101825686D01*
X136460280Y-101825685D01*
X136386603Y-101795168D01*
X136386601Y-101795167D01*
X136379792Y-101792347D01*
X136346452Y-101778537D01*
X136286029Y-101766518D01*
X136281306Y-101765578D01*
X136281304Y-101765578D01*
X136225610Y-101754500D01*
X136225607Y-101754500D01*
X136225606Y-101754500D01*
X134772981Y-101754500D01*
X134705942Y-101734815D01*
X134662497Y-101686797D01*
X134655049Y-101672180D01*
X134530109Y-101500213D01*
X134379786Y-101349890D01*
X134207820Y-101224951D01*
X134018414Y-101128444D01*
X134018413Y-101128443D01*
X134018412Y-101128443D01*
X133816243Y-101062754D01*
X133816241Y-101062753D01*
X133816240Y-101062753D01*
X133654957Y-101037208D01*
X133606287Y-101029500D01*
X133393713Y-101029500D01*
X133345042Y-101037208D01*
X133183760Y-101062753D01*
X132981585Y-101128444D01*
X132792179Y-101224951D01*
X132620213Y-101349890D01*
X132469890Y-101500213D01*
X132344951Y-101672179D01*
X132248444Y-101861585D01*
X132182753Y-102063760D01*
X132149500Y-102273713D01*
X132149500Y-102486286D01*
X132172624Y-102632289D01*
X132182754Y-102696243D01*
X132244578Y-102886518D01*
X132248444Y-102898414D01*
X132344951Y-103087820D01*
X132469890Y-103259786D01*
X132620213Y-103410109D01*
X132792179Y-103535048D01*
X132792181Y-103535049D01*
X132792184Y-103535051D01*
X132801493Y-103539794D01*
X132852290Y-103587766D01*
X132869087Y-103655587D01*
X132846552Y-103721722D01*
X132801502Y-103760762D01*
X132792443Y-103765378D01*
X132620540Y-103890272D01*
X132620535Y-103890276D01*
X132470276Y-104040535D01*
X132470272Y-104040540D01*
X132345379Y-104212442D01*
X132248904Y-104401782D01*
X132183242Y-104603870D01*
X132183242Y-104603873D01*
X132172769Y-104670000D01*
X133066988Y-104670000D01*
X133034075Y-104727007D01*
X133000000Y-104854174D01*
X133000000Y-104985826D01*
X133034075Y-105112993D01*
X133066988Y-105170000D01*
X132172769Y-105170000D01*
X132183242Y-105236126D01*
X132183242Y-105236129D01*
X132248904Y-105438217D01*
X132345379Y-105627557D01*
X132470272Y-105799459D01*
X132470276Y-105799464D01*
X132620535Y-105949723D01*
X132620540Y-105949727D01*
X132792444Y-106074622D01*
X132802048Y-106079516D01*
X132852844Y-106127491D01*
X132869638Y-106195312D01*
X132847100Y-106261447D01*
X132802048Y-106300484D01*
X132792444Y-106305377D01*
X132620540Y-106430272D01*
X132620535Y-106430276D01*
X132470276Y-106580535D01*
X132470272Y-106580540D01*
X132345379Y-106752442D01*
X132248904Y-106941782D01*
X132183242Y-107143870D01*
X132183242Y-107143873D01*
X132172769Y-107210000D01*
X133066988Y-107210000D01*
X133034075Y-107267007D01*
X133000000Y-107394174D01*
X133000000Y-107525826D01*
X133034075Y-107652993D01*
X133066988Y-107710000D01*
X132172769Y-107710000D01*
X132183242Y-107776126D01*
X132183242Y-107776129D01*
X132248904Y-107978217D01*
X132345379Y-108167557D01*
X132470272Y-108339459D01*
X132470276Y-108339464D01*
X132620535Y-108489723D01*
X132620540Y-108489727D01*
X132792444Y-108614622D01*
X132801495Y-108619234D01*
X132852292Y-108667208D01*
X132869087Y-108735029D01*
X132846550Y-108801164D01*
X132801499Y-108840202D01*
X132792182Y-108844949D01*
X132620213Y-108969890D01*
X132469890Y-109120213D01*
X132344951Y-109292179D01*
X132248444Y-109481585D01*
X132182753Y-109683760D01*
X132161880Y-109815547D01*
X132149500Y-109893713D01*
X132149500Y-110106287D01*
X132182754Y-110316243D01*
X132242533Y-110500224D01*
X132248444Y-110518414D01*
X132344951Y-110707820D01*
X132469890Y-110879786D01*
X132620213Y-111030109D01*
X132792181Y-111155050D01*
X132806792Y-111162494D01*
X132857589Y-111210467D01*
X132874500Y-111272980D01*
X132874500Y-114061606D01*
X132898537Y-114182452D01*
X132907592Y-114204312D01*
X132945688Y-114296286D01*
X132979098Y-114346286D01*
X132983209Y-114352439D01*
X132983214Y-114352448D01*
X133014138Y-114398728D01*
X133014139Y-114398729D01*
X133014142Y-114398733D01*
X133101267Y-114485858D01*
X133101269Y-114485859D01*
X133108335Y-114492925D01*
X133108334Y-114492925D01*
X133108338Y-114492928D01*
X135070894Y-116455484D01*
X135104379Y-116516807D01*
X135106571Y-116555766D01*
X135099500Y-116624978D01*
X135099500Y-117375001D01*
X135099501Y-117375019D01*
X135110000Y-117477796D01*
X135110001Y-117477799D01*
X135165185Y-117644331D01*
X135165187Y-117644336D01*
X135200069Y-117700888D01*
X135257288Y-117793656D01*
X135381344Y-117917712D01*
X135530666Y-118009814D01*
X135697203Y-118064999D01*
X135799991Y-118075500D01*
X137200008Y-118075499D01*
X137302797Y-118064999D01*
X137469334Y-118009814D01*
X137618656Y-117917712D01*
X137742712Y-117793656D01*
X137834814Y-117644334D01*
X137889999Y-117477797D01*
X137897948Y-117399986D01*
X139075001Y-117399986D01*
X139085494Y-117502697D01*
X139140641Y-117669119D01*
X139140643Y-117669124D01*
X139232684Y-117818345D01*
X139356654Y-117942315D01*
X139505875Y-118034356D01*
X139505880Y-118034358D01*
X139672302Y-118089505D01*
X139672309Y-118089506D01*
X139775019Y-118099999D01*
X140224999Y-118099999D01*
X140725000Y-118099999D01*
X141174972Y-118099999D01*
X141174986Y-118099998D01*
X141277697Y-118089505D01*
X141444119Y-118034358D01*
X141444124Y-118034356D01*
X141593345Y-117942315D01*
X141717315Y-117818345D01*
X141809356Y-117669124D01*
X141809358Y-117669119D01*
X141864505Y-117502697D01*
X141864506Y-117502690D01*
X141874999Y-117399986D01*
X143075001Y-117399986D01*
X143085494Y-117502697D01*
X143140641Y-117669119D01*
X143140643Y-117669124D01*
X143232684Y-117818345D01*
X143356654Y-117942315D01*
X143505875Y-118034356D01*
X143505880Y-118034358D01*
X143672302Y-118089505D01*
X143672309Y-118089506D01*
X143775019Y-118099999D01*
X144224999Y-118099999D01*
X144725000Y-118099999D01*
X145174972Y-118099999D01*
X145174986Y-118099998D01*
X145277697Y-118089505D01*
X145444119Y-118034358D01*
X145444124Y-118034356D01*
X145593345Y-117942315D01*
X145717315Y-117818345D01*
X145809356Y-117669124D01*
X145809358Y-117669119D01*
X145864505Y-117502697D01*
X145864506Y-117502690D01*
X145874999Y-117399986D01*
X145875000Y-117399973D01*
X145875000Y-117275000D01*
X144725000Y-117275000D01*
X144725000Y-118099999D01*
X144224999Y-118099999D01*
X144225000Y-118099998D01*
X144225000Y-117275000D01*
X143075001Y-117275000D01*
X143075001Y-117399986D01*
X141874999Y-117399986D01*
X141875000Y-117399973D01*
X141875000Y-117275000D01*
X140725000Y-117275000D01*
X140725000Y-118099999D01*
X140224999Y-118099999D01*
X140225000Y-118099998D01*
X140225000Y-117275000D01*
X139075001Y-117275000D01*
X139075001Y-117399986D01*
X137897948Y-117399986D01*
X137900500Y-117375009D01*
X137900499Y-116624992D01*
X137898095Y-116601463D01*
X137889999Y-116522203D01*
X137889998Y-116522200D01*
X137849085Y-116398733D01*
X137834814Y-116355666D01*
X137809481Y-116314595D01*
X137791042Y-116247204D01*
X137811965Y-116180541D01*
X137865607Y-116135771D01*
X137915021Y-116125500D01*
X139075986Y-116125500D01*
X139143025Y-116145185D01*
X139188780Y-116197989D01*
X139198724Y-116267147D01*
X139181525Y-116314597D01*
X139140643Y-116380875D01*
X139140641Y-116380880D01*
X139085494Y-116547302D01*
X139085493Y-116547309D01*
X139075000Y-116650013D01*
X139075000Y-116775000D01*
X141874999Y-116775000D01*
X141874999Y-116650028D01*
X141874998Y-116650013D01*
X141864505Y-116547302D01*
X141809358Y-116380880D01*
X141809356Y-116380875D01*
X141768475Y-116314597D01*
X141750035Y-116247204D01*
X141770958Y-116180541D01*
X141824599Y-116135771D01*
X141874014Y-116125500D01*
X143075986Y-116125500D01*
X143143025Y-116145185D01*
X143188780Y-116197989D01*
X143198724Y-116267147D01*
X143181525Y-116314597D01*
X143140643Y-116380875D01*
X143140641Y-116380880D01*
X143085494Y-116547302D01*
X143085493Y-116547309D01*
X143075000Y-116650013D01*
X143075000Y-116775000D01*
X145874999Y-116775000D01*
X145874999Y-116749500D01*
X145894684Y-116682461D01*
X145947488Y-116636706D01*
X145998999Y-116625500D01*
X150266607Y-116625500D01*
X150327029Y-116613481D01*
X150387452Y-116601463D01*
X150420792Y-116587652D01*
X150501286Y-116554312D01*
X150552509Y-116520084D01*
X150557414Y-116516807D01*
X150565271Y-116511556D01*
X150603733Y-116485858D01*
X150690858Y-116398733D01*
X150690859Y-116398731D01*
X150697925Y-116391665D01*
X150697928Y-116391661D01*
X151058729Y-116030860D01*
X151058733Y-116030858D01*
X151145858Y-115943733D01*
X151214311Y-115841286D01*
X151216534Y-115835917D01*
X151220211Y-115827044D01*
X151264053Y-115772642D01*
X151330347Y-115750578D01*
X151334771Y-115750499D01*
X151457871Y-115750499D01*
X151457872Y-115750499D01*
X151517483Y-115744091D01*
X151652331Y-115693796D01*
X151767546Y-115607546D01*
X151853796Y-115492331D01*
X151904091Y-115357483D01*
X151910500Y-115297873D01*
X151910499Y-113202128D01*
X151904091Y-113142517D01*
X151900276Y-113132289D01*
X151853797Y-113007671D01*
X151853793Y-113007664D01*
X151767547Y-112892455D01*
X151767544Y-112892452D01*
X151652335Y-112806206D01*
X151652328Y-112806202D01*
X151517482Y-112755908D01*
X151517483Y-112755908D01*
X151457883Y-112749501D01*
X151457881Y-112749500D01*
X151457873Y-112749500D01*
X151457865Y-112749500D01*
X150434451Y-112749500D01*
X150367412Y-112729815D01*
X150321657Y-112677011D01*
X150311713Y-112607853D01*
X150340738Y-112544297D01*
X150346770Y-112537819D01*
X152825491Y-110059098D01*
X152886814Y-110025613D01*
X152956506Y-110030597D01*
X153012439Y-110072469D01*
X153036856Y-110137933D01*
X153037172Y-110146779D01*
X153037172Y-118494041D01*
X153017487Y-118561080D01*
X152964683Y-118606835D01*
X152913172Y-118618041D01*
X131684755Y-118618041D01*
X131617716Y-118598356D01*
X131571961Y-118545552D01*
X131560755Y-118494041D01*
X131560755Y-100644117D01*
X131580440Y-100577078D01*
X131633244Y-100531323D01*
X131684755Y-100520117D01*
X152913172Y-100520117D01*
X152980211Y-100539802D01*
G37*
%TD.AperFunction*%
%TA.AperFunction,Conductor*%
G36*
X135920587Y-103025185D02*
G01*
X135941229Y-103041819D01*
X136687229Y-103787819D01*
X136720714Y-103849142D01*
X136715730Y-103918834D01*
X136673858Y-103974767D01*
X136608394Y-103999184D01*
X136599549Y-103999500D01*
X136452130Y-103999500D01*
X136452123Y-103999501D01*
X136392516Y-104005908D01*
X136257671Y-104056202D01*
X136257664Y-104056206D01*
X136142455Y-104142452D01*
X136142452Y-104142455D01*
X136056206Y-104257664D01*
X136056202Y-104257671D01*
X136005908Y-104392517D01*
X136003101Y-104418630D01*
X135999501Y-104452123D01*
X135999500Y-104452135D01*
X135999500Y-105747870D01*
X135999501Y-105747876D01*
X136005908Y-105807483D01*
X136056202Y-105942328D01*
X136056206Y-105942335D01*
X136142452Y-106057544D01*
X136142455Y-106057547D01*
X136257664Y-106143793D01*
X136257671Y-106143797D01*
X136392517Y-106194091D01*
X136392516Y-106194091D01*
X136399444Y-106194835D01*
X136452127Y-106200500D01*
X137547872Y-106200499D01*
X137607483Y-106194091D01*
X137742331Y-106143796D01*
X137857546Y-106057546D01*
X137943796Y-105942331D01*
X137994091Y-105807483D01*
X138000500Y-105747873D01*
X138000499Y-104452128D01*
X137995087Y-104401782D01*
X137994091Y-104392516D01*
X137956912Y-104292833D01*
X137951928Y-104223141D01*
X137985414Y-104161818D01*
X138046737Y-104128334D01*
X138073094Y-104125500D01*
X138426906Y-104125500D01*
X138493945Y-104145185D01*
X138539700Y-104197989D01*
X138549644Y-104267147D01*
X138543088Y-104292833D01*
X138505908Y-104392517D01*
X138503101Y-104418630D01*
X138499501Y-104452123D01*
X138499500Y-104452135D01*
X138499500Y-105747870D01*
X138499501Y-105747876D01*
X138505908Y-105807483D01*
X138556202Y-105942328D01*
X138556206Y-105942335D01*
X138642452Y-106057544D01*
X138642455Y-106057547D01*
X138757664Y-106143793D01*
X138757669Y-106143796D01*
X138793832Y-106157284D01*
X138849766Y-106199154D01*
X138874184Y-106264618D01*
X138874500Y-106273466D01*
X138874500Y-106671000D01*
X138854815Y-106738039D01*
X138802011Y-106783794D01*
X138750500Y-106795000D01*
X138275000Y-106795000D01*
X138275000Y-107471000D01*
X138255315Y-107538039D01*
X138202511Y-107583794D01*
X138151000Y-107595000D01*
X138025000Y-107595000D01*
X138025000Y-107721000D01*
X138005315Y-107788039D01*
X137952511Y-107833794D01*
X137901000Y-107845000D01*
X136552705Y-107845000D01*
X136552704Y-107845001D01*
X136552899Y-107847486D01*
X136598718Y-108005198D01*
X136626621Y-108052379D01*
X136643804Y-108120103D01*
X136621644Y-108186365D01*
X136567178Y-108230129D01*
X136519889Y-108239500D01*
X135573389Y-108239500D01*
X135517092Y-108250698D01*
X135517087Y-108250699D01*
X135512971Y-108251518D01*
X135452548Y-108263537D01*
X135427979Y-108273714D01*
X135420594Y-108276772D01*
X135420586Y-108276775D01*
X135338713Y-108310688D01*
X135338708Y-108310690D01*
X135236272Y-108379138D01*
X135236264Y-108379144D01*
X134877880Y-108737528D01*
X134877872Y-108737536D01*
X134875270Y-108740139D01*
X134875267Y-108740142D01*
X134788142Y-108827267D01*
X134762071Y-108866285D01*
X134757355Y-108873342D01*
X134757352Y-108873346D01*
X134719689Y-108929712D01*
X134719688Y-108929714D01*
X134690782Y-108999500D01*
X134690780Y-108999506D01*
X134679381Y-109027022D01*
X134635537Y-109081423D01*
X134569242Y-109103485D01*
X134501544Y-109086203D01*
X134477141Y-109067245D01*
X134379786Y-108969890D01*
X134207817Y-108844949D01*
X134198504Y-108840204D01*
X134147707Y-108792230D01*
X134130912Y-108724409D01*
X134153449Y-108658274D01*
X134198507Y-108619232D01*
X134207558Y-108614620D01*
X134379459Y-108489727D01*
X134379464Y-108489723D01*
X134529723Y-108339464D01*
X134529727Y-108339459D01*
X134654620Y-108167557D01*
X134751095Y-107978217D01*
X134816757Y-107776129D01*
X134816757Y-107776126D01*
X134827231Y-107710000D01*
X133933012Y-107710000D01*
X133965925Y-107652993D01*
X134000000Y-107525826D01*
X134000000Y-107394174D01*
X133986823Y-107344998D01*
X136552704Y-107344998D01*
X136552705Y-107345000D01*
X137775000Y-107345000D01*
X137775000Y-106795000D01*
X137134350Y-106795000D01*
X137097510Y-106797899D01*
X137097504Y-106797900D01*
X136939806Y-106843716D01*
X136939803Y-106843717D01*
X136798447Y-106927314D01*
X136798438Y-106927321D01*
X136682321Y-107043438D01*
X136682314Y-107043447D01*
X136598718Y-107184801D01*
X136552899Y-107342513D01*
X136552704Y-107344998D01*
X133986823Y-107344998D01*
X133965925Y-107267007D01*
X133933012Y-107210000D01*
X134827231Y-107210000D01*
X134816757Y-107143873D01*
X134816757Y-107143870D01*
X134751095Y-106941782D01*
X134654620Y-106752442D01*
X134529727Y-106580540D01*
X134529723Y-106580535D01*
X134379464Y-106430276D01*
X134379459Y-106430272D01*
X134207558Y-106305379D01*
X134197954Y-106300486D01*
X134147157Y-106252512D01*
X134130361Y-106184692D01*
X134152897Y-106118556D01*
X134197954Y-106079514D01*
X134207558Y-106074620D01*
X134379459Y-105949727D01*
X134379464Y-105949723D01*
X134529723Y-105799464D01*
X134529727Y-105799459D01*
X134654620Y-105627557D01*
X134751095Y-105438217D01*
X134816757Y-105236129D01*
X134816757Y-105236126D01*
X134827231Y-105170000D01*
X133933012Y-105170000D01*
X133965925Y-105112993D01*
X134000000Y-104985826D01*
X134000000Y-104854174D01*
X133965925Y-104727007D01*
X133933012Y-104670000D01*
X134827231Y-104670000D01*
X134816757Y-104603873D01*
X134816757Y-104603870D01*
X134751095Y-104401782D01*
X134654620Y-104212442D01*
X134529727Y-104040540D01*
X134529723Y-104040535D01*
X134379464Y-103890276D01*
X134379459Y-103890272D01*
X134207555Y-103765377D01*
X134198500Y-103760763D01*
X134147706Y-103712788D01*
X134130912Y-103644966D01*
X134153451Y-103578832D01*
X134198508Y-103539793D01*
X134207816Y-103535051D01*
X134287007Y-103477515D01*
X134379786Y-103410109D01*
X134379788Y-103410106D01*
X134379792Y-103410104D01*
X134530104Y-103259792D01*
X134530106Y-103259788D01*
X134530109Y-103259786D01*
X134655049Y-103087819D01*
X134662497Y-103073203D01*
X134710473Y-103022408D01*
X134772981Y-103005500D01*
X135853548Y-103005500D01*
X135920587Y-103025185D01*
G37*
%TD.AperFunction*%
%TA.AperFunction,Conductor*%
G36*
X133750000Y-107026988D02*
G01*
X133692993Y-106994075D01*
X133565826Y-106960000D01*
X133434174Y-106960000D01*
X133307007Y-106994075D01*
X133250000Y-107026988D01*
X133250000Y-105353012D01*
X133307007Y-105385925D01*
X133434174Y-105420000D01*
X133565826Y-105420000D01*
X133692993Y-105385925D01*
X133750000Y-105353012D01*
X133750000Y-107026988D01*
G37*
%TD.AperFunction*%
%TD*%
M02*
