%TF.GenerationSoftware,KiCad,Pcbnew,9.0.7*%
%TF.CreationDate,2026-01-21T13:14:29+02:00*%
%TF.ProjectId,Electronics Assignment 2,456c6563-7472-46f6-9e69-637320417373,rev?*%
%TF.SameCoordinates,Original*%
%TF.FileFunction,Legend,Top*%
%TF.FilePolarity,Positive*%
%FSLAX46Y46*%
G04 Gerber Fmt 4.6, Leading zero omitted, Abs format (unit mm)*
G04 Created by KiCad (PCBNEW 9.0.7) date 2026-01-21 13:14:29*
%MOMM*%
%LPD*%
G01*
G04 APERTURE LIST*
%ADD10C,0.100000*%
%ADD11C,0.150000*%
%ADD12C,0.120000*%
G04 APERTURE END LIST*
D10*
X138908326Y-104408326D02*
X140071073Y-104408326D01*
X140071073Y-105772918D01*
X138908326Y-105772918D01*
X138908326Y-104408326D01*
X146500000Y-105828910D02*
X148500000Y-105828910D01*
X148500000Y-107091428D01*
X146500000Y-107091428D01*
X146500000Y-105828910D01*
X141422647Y-104426123D02*
X142569655Y-104426123D01*
X142569655Y-105773280D01*
X141422647Y-105773280D01*
X141422647Y-104426123D01*
X135500000Y-113398302D02*
X137500000Y-113398302D01*
X137500000Y-114735791D01*
X135500000Y-114735791D01*
X135500000Y-113398302D01*
X148415067Y-107436882D02*
X150576172Y-107436882D01*
X150576172Y-110076172D01*
X148415067Y-110076172D01*
X148415067Y-107436882D01*
X143464546Y-116365497D02*
X145464546Y-116365497D01*
X145464546Y-117653695D01*
X143464546Y-117653695D01*
X143464546Y-116365497D01*
X139436287Y-113429804D02*
X141500000Y-113429804D01*
X141500000Y-114729728D01*
X139436287Y-114729728D01*
X139436287Y-113429804D01*
X135470690Y-116352165D02*
X137524278Y-116352165D01*
X137524278Y-117647835D01*
X135470690Y-117647835D01*
X135470690Y-116352165D01*
X143470301Y-113440225D02*
X145493856Y-113440225D01*
X145493856Y-114731147D01*
X143470301Y-114731147D01*
X143470301Y-113440225D01*
X149788804Y-113172320D02*
X151488308Y-113172320D01*
X151488308Y-115322274D01*
X149788804Y-115322274D01*
X149788804Y-113172320D01*
X139470690Y-116371532D02*
X141470690Y-116371532D01*
X141470690Y-117697687D01*
X139470690Y-117697687D01*
X139470690Y-116371532D01*
X147489475Y-113172320D02*
X149188979Y-113172320D01*
X149188979Y-115322200D01*
X147489475Y-115322200D01*
X147489475Y-113172320D01*
X136423570Y-104428982D02*
X137568311Y-104428982D01*
X137568311Y-105771280D01*
X136423570Y-105771280D01*
X136423570Y-104428982D01*
X146500000Y-102907953D02*
X148500000Y-102907953D01*
X148500000Y-104170471D01*
X146500000Y-104170471D01*
X146500000Y-102907953D01*
X150803884Y-103777180D02*
X150851503Y-103824800D01*
X150851503Y-103824800D02*
X150803884Y-103872419D01*
X150803884Y-103872419D02*
X150756265Y-103824800D01*
X150756265Y-103824800D02*
X150803884Y-103777180D01*
X150803884Y-103777180D02*
X150803884Y-103872419D01*
X150803884Y-103253371D02*
X150851503Y-103300990D01*
X150851503Y-103300990D02*
X150803884Y-103348609D01*
X150803884Y-103348609D02*
X150756265Y-103300990D01*
X150756265Y-103300990D02*
X150803884Y-103253371D01*
X150803884Y-103253371D02*
X150803884Y-103348609D01*
X151280074Y-103872419D02*
X151280074Y-102872419D01*
X151280074Y-102872419D02*
X151518169Y-102872419D01*
X151518169Y-102872419D02*
X151661026Y-102920038D01*
X151661026Y-102920038D02*
X151756264Y-103015276D01*
X151756264Y-103015276D02*
X151803883Y-103110514D01*
X151803883Y-103110514D02*
X151851502Y-103300990D01*
X151851502Y-103300990D02*
X151851502Y-103443847D01*
X151851502Y-103443847D02*
X151803883Y-103634323D01*
X151803883Y-103634323D02*
X151756264Y-103729561D01*
X151756264Y-103729561D02*
X151661026Y-103824800D01*
X151661026Y-103824800D02*
X151518169Y-103872419D01*
X151518169Y-103872419D02*
X151280074Y-103872419D01*
X138256265Y-102824800D02*
X138399122Y-102872419D01*
X138399122Y-102872419D02*
X138637217Y-102872419D01*
X138637217Y-102872419D02*
X138732455Y-102824800D01*
X138732455Y-102824800D02*
X138780074Y-102777180D01*
X138780074Y-102777180D02*
X138827693Y-102681942D01*
X138827693Y-102681942D02*
X138827693Y-102586704D01*
X138827693Y-102586704D02*
X138780074Y-102491466D01*
X138780074Y-102491466D02*
X138732455Y-102443847D01*
X138732455Y-102443847D02*
X138637217Y-102396228D01*
X138637217Y-102396228D02*
X138446741Y-102348609D01*
X138446741Y-102348609D02*
X138351503Y-102300990D01*
X138351503Y-102300990D02*
X138303884Y-102253371D01*
X138303884Y-102253371D02*
X138256265Y-102158133D01*
X138256265Y-102158133D02*
X138256265Y-102062895D01*
X138256265Y-102062895D02*
X138303884Y-101967657D01*
X138303884Y-101967657D02*
X138351503Y-101920038D01*
X138351503Y-101920038D02*
X138446741Y-101872419D01*
X138446741Y-101872419D02*
X138684836Y-101872419D01*
X138684836Y-101872419D02*
X138827693Y-101920038D01*
X139161027Y-101872419D02*
X139399122Y-102872419D01*
X139399122Y-102872419D02*
X139589598Y-102158133D01*
X139589598Y-102158133D02*
X139780074Y-102872419D01*
X139780074Y-102872419D02*
X140018170Y-101872419D01*
X140922931Y-102872419D02*
X140351503Y-102872419D01*
X140637217Y-102872419D02*
X140637217Y-101872419D01*
X140637217Y-101872419D02*
X140541979Y-102015276D01*
X140541979Y-102015276D02*
X140446741Y-102110514D01*
X140446741Y-102110514D02*
X140351503Y-102158133D01*
D11*
X134859580Y-115691666D02*
X134907200Y-115739285D01*
X134907200Y-115739285D02*
X134954819Y-115882142D01*
X134954819Y-115882142D02*
X134954819Y-115977380D01*
X134954819Y-115977380D02*
X134907200Y-116120237D01*
X134907200Y-116120237D02*
X134811961Y-116215475D01*
X134811961Y-116215475D02*
X134716723Y-116263094D01*
X134716723Y-116263094D02*
X134526247Y-116310713D01*
X134526247Y-116310713D02*
X134383390Y-116310713D01*
X134383390Y-116310713D02*
X134192914Y-116263094D01*
X134192914Y-116263094D02*
X134097676Y-116215475D01*
X134097676Y-116215475D02*
X134002438Y-116120237D01*
X134002438Y-116120237D02*
X133954819Y-115977380D01*
X133954819Y-115977380D02*
X133954819Y-115882142D01*
X133954819Y-115882142D02*
X134002438Y-115739285D01*
X134002438Y-115739285D02*
X134050057Y-115691666D01*
X134050057Y-115310713D02*
X134002438Y-115263094D01*
X134002438Y-115263094D02*
X133954819Y-115167856D01*
X133954819Y-115167856D02*
X133954819Y-114929761D01*
X133954819Y-114929761D02*
X134002438Y-114834523D01*
X134002438Y-114834523D02*
X134050057Y-114786904D01*
X134050057Y-114786904D02*
X134145295Y-114739285D01*
X134145295Y-114739285D02*
X134240533Y-114739285D01*
X134240533Y-114739285D02*
X134383390Y-114786904D01*
X134383390Y-114786904D02*
X134954819Y-115358332D01*
X134954819Y-115358332D02*
X134954819Y-114739285D01*
X138834580Y-115741666D02*
X138882200Y-115789285D01*
X138882200Y-115789285D02*
X138929819Y-115932142D01*
X138929819Y-115932142D02*
X138929819Y-116027380D01*
X138929819Y-116027380D02*
X138882200Y-116170237D01*
X138882200Y-116170237D02*
X138786961Y-116265475D01*
X138786961Y-116265475D02*
X138691723Y-116313094D01*
X138691723Y-116313094D02*
X138501247Y-116360713D01*
X138501247Y-116360713D02*
X138358390Y-116360713D01*
X138358390Y-116360713D02*
X138167914Y-116313094D01*
X138167914Y-116313094D02*
X138072676Y-116265475D01*
X138072676Y-116265475D02*
X137977438Y-116170237D01*
X137977438Y-116170237D02*
X137929819Y-116027380D01*
X137929819Y-116027380D02*
X137929819Y-115932142D01*
X137929819Y-115932142D02*
X137977438Y-115789285D01*
X137977438Y-115789285D02*
X138025057Y-115741666D01*
X137929819Y-115408332D02*
X137929819Y-114789285D01*
X137929819Y-114789285D02*
X138310771Y-115122618D01*
X138310771Y-115122618D02*
X138310771Y-114979761D01*
X138310771Y-114979761D02*
X138358390Y-114884523D01*
X138358390Y-114884523D02*
X138406009Y-114836904D01*
X138406009Y-114836904D02*
X138501247Y-114789285D01*
X138501247Y-114789285D02*
X138739342Y-114789285D01*
X138739342Y-114789285D02*
X138834580Y-114836904D01*
X138834580Y-114836904D02*
X138882200Y-114884523D01*
X138882200Y-114884523D02*
X138929819Y-114979761D01*
X138929819Y-114979761D02*
X138929819Y-115265475D01*
X138929819Y-115265475D02*
X138882200Y-115360713D01*
X138882200Y-115360713D02*
X138834580Y-115408332D01*
X149954819Y-112095238D02*
X149478628Y-112428571D01*
X149954819Y-112666666D02*
X148954819Y-112666666D01*
X148954819Y-112666666D02*
X148954819Y-112285714D01*
X148954819Y-112285714D02*
X149002438Y-112190476D01*
X149002438Y-112190476D02*
X149050057Y-112142857D01*
X149050057Y-112142857D02*
X149145295Y-112095238D01*
X149145295Y-112095238D02*
X149288152Y-112095238D01*
X149288152Y-112095238D02*
X149383390Y-112142857D01*
X149383390Y-112142857D02*
X149431009Y-112190476D01*
X149431009Y-112190476D02*
X149478628Y-112285714D01*
X149478628Y-112285714D02*
X149478628Y-112666666D01*
X148954819Y-111809523D02*
X149954819Y-111476190D01*
X149954819Y-111476190D02*
X148954819Y-111142857D01*
X149954819Y-110285714D02*
X149954819Y-110857142D01*
X149954819Y-110571428D02*
X148954819Y-110571428D01*
X148954819Y-110571428D02*
X149097676Y-110666666D01*
X149097676Y-110666666D02*
X149192914Y-110761904D01*
X149192914Y-110761904D02*
X149240533Y-110857142D01*
X143073934Y-115750087D02*
X143121554Y-115797706D01*
X143121554Y-115797706D02*
X143169173Y-115940563D01*
X143169173Y-115940563D02*
X143169173Y-116035801D01*
X143169173Y-116035801D02*
X143121554Y-116178658D01*
X143121554Y-116178658D02*
X143026315Y-116273896D01*
X143026315Y-116273896D02*
X142931077Y-116321515D01*
X142931077Y-116321515D02*
X142740601Y-116369134D01*
X142740601Y-116369134D02*
X142597744Y-116369134D01*
X142597744Y-116369134D02*
X142407268Y-116321515D01*
X142407268Y-116321515D02*
X142312030Y-116273896D01*
X142312030Y-116273896D02*
X142216792Y-116178658D01*
X142216792Y-116178658D02*
X142169173Y-116035801D01*
X142169173Y-116035801D02*
X142169173Y-115940563D01*
X142169173Y-115940563D02*
X142216792Y-115797706D01*
X142216792Y-115797706D02*
X142264411Y-115750087D01*
X143169173Y-114797706D02*
X143169173Y-115369134D01*
X143169173Y-115083420D02*
X142169173Y-115083420D01*
X142169173Y-115083420D02*
X142312030Y-115178658D01*
X142312030Y-115178658D02*
X142407268Y-115273896D01*
X142407268Y-115273896D02*
X142454887Y-115369134D01*
X139954819Y-110261904D02*
X140764342Y-110261904D01*
X140764342Y-110261904D02*
X140859580Y-110214285D01*
X140859580Y-110214285D02*
X140907200Y-110166666D01*
X140907200Y-110166666D02*
X140954819Y-110071428D01*
X140954819Y-110071428D02*
X140954819Y-109880952D01*
X140954819Y-109880952D02*
X140907200Y-109785714D01*
X140907200Y-109785714D02*
X140859580Y-109738095D01*
X140859580Y-109738095D02*
X140764342Y-109690476D01*
X140764342Y-109690476D02*
X139954819Y-109690476D01*
X140954819Y-108690476D02*
X140954819Y-109261904D01*
X140954819Y-108976190D02*
X139954819Y-108976190D01*
X139954819Y-108976190D02*
X140097676Y-109071428D01*
X140097676Y-109071428D02*
X140192914Y-109166666D01*
X140192914Y-109166666D02*
X140240533Y-109261904D01*
X145954819Y-105166666D02*
X145478628Y-105499999D01*
X145954819Y-105738094D02*
X144954819Y-105738094D01*
X144954819Y-105738094D02*
X144954819Y-105357142D01*
X144954819Y-105357142D02*
X145002438Y-105261904D01*
X145002438Y-105261904D02*
X145050057Y-105214285D01*
X145050057Y-105214285D02*
X145145295Y-105166666D01*
X145145295Y-105166666D02*
X145288152Y-105166666D01*
X145288152Y-105166666D02*
X145383390Y-105214285D01*
X145383390Y-105214285D02*
X145431009Y-105261904D01*
X145431009Y-105261904D02*
X145478628Y-105357142D01*
X145478628Y-105357142D02*
X145478628Y-105738094D01*
X145954819Y-104214285D02*
X145954819Y-104785713D01*
X145954819Y-104499999D02*
X144954819Y-104499999D01*
X144954819Y-104499999D02*
X145097676Y-104595237D01*
X145097676Y-104595237D02*
X145192914Y-104690475D01*
X145192914Y-104690475D02*
X145240533Y-104785713D01*
D12*
%TO.C,SW1*%
X135600000Y-101000000D02*
X135600000Y-104300000D01*
X135600000Y-104300000D02*
X136200000Y-104300000D01*
X143400000Y-104300000D02*
X142800000Y-104300000D01*
X143400000Y-104300000D02*
X143400000Y-101000000D01*
%TO.C,C2*%
X135590000Y-114813748D02*
X135590000Y-116236252D01*
X137410000Y-114813748D02*
X137410000Y-116236252D01*
%TO.C,C3*%
X139565000Y-116261252D02*
X139565000Y-114838748D01*
X141385000Y-116261252D02*
X141385000Y-114838748D01*
%TO.C,RV1*%
X146850000Y-109120000D02*
X147360000Y-109120000D01*
X146850000Y-111400000D02*
X146850000Y-109120000D01*
X151650000Y-109120000D02*
X152160000Y-109120000D01*
X152160000Y-109120000D02*
X152160000Y-111400000D01*
%TO.C,C1*%
X143565000Y-114838748D02*
X143565000Y-116261252D01*
X145385000Y-114838748D02*
X145385000Y-116261252D01*
%TO.C,U1*%
X138440000Y-106940000D02*
X142560000Y-106940000D01*
X138440000Y-107035000D02*
X138440000Y-106940000D01*
X138440000Y-112060000D02*
X138440000Y-111965000D01*
X142560000Y-106940000D02*
X142560000Y-107035000D01*
X142560000Y-111965000D02*
X142560000Y-112060000D01*
X142560000Y-112060000D02*
X138440000Y-112060000D01*
X137900000Y-107030000D02*
X137660000Y-106700000D01*
X138140000Y-106700000D01*
X137900000Y-107030000D01*
G36*
X137900000Y-107030000D02*
G01*
X137660000Y-106700000D01*
X138140000Y-106700000D01*
X137900000Y-107030000D01*
G37*
%TO.C,J2*%
X132230000Y-101110000D02*
X132230000Y-111270000D01*
X132230000Y-101110000D02*
X134770000Y-101110000D01*
X132230000Y-111270000D02*
X134770000Y-111270000D01*
X134770000Y-101110000D02*
X134770000Y-111270000D01*
%TO.C,R1*%
X146590000Y-104272936D02*
X146590000Y-105727064D01*
X148410000Y-104272936D02*
X148410000Y-105727064D01*
%TD*%
M02*
