<?xml version="1.0" standalone="no"?>
 <!DOCTYPE svg PUBLIC "-//W3C//DTD SVG 1.1//EN" 
 "http://www.w3.org/Graphics/SVG/1.1/DTD/svg11.dtd"> 
<svg
  xmlns:svg="http://www.w3.org/2000/svg"
  xmlns="http://www.w3.org/2000/svg"
  xmlns:xlink="http://www.w3.org/1999/xlink"
  version="1.1"
  width="22.5044mm" height="19.3040mm" viewBox="0.0000 0.0000 22.5044 19.3040">
<title>SVG Image created as Electronics Assignment 2-Edge_Cuts.svg date 2026/01/21 14:12:45 </title>
  <desc>Image generated by PCBNEW </desc>
<g style="fill:#000000; fill-opacity:1.0000;stroke:#000000; stroke-opacity:1.0000;
stroke-linecap:round; stroke-linejoin:round;"
 transform="translate(0 0) scale(1 1)">
<path style="fill:none; 
stroke:#000000; stroke-width:0.0500; stroke-opacity:1; 
stroke-linecap:round; stroke-linejoin:round;fill:none"
d="M 0.3680,0.6446
22.2454,0.6446
22.2454,19.1435
0.3680,19.1435
Z" /> 
<path style="fill:none; 
stroke:#000000; stroke-width:0.1000; stroke-opacity:1; 
stroke-linecap:round; stroke-linejoin:round;fill:none"
d="M 7.9160,4.7333
9.0788,4.7333
9.0788,6.0979
7.9160,6.0979
Z" /> 
<path style="fill:none; 
stroke:#000000; stroke-width:0.1000; stroke-opacity:1; 
stroke-linecap:round; stroke-linejoin:round;fill:none"
d="M 15.5077,6.1539
17.5077,6.1539
17.5077,7.4164
15.5077,7.4164
Z" /> 
<path style="fill:none; 
stroke:#000000; stroke-width:0.1000; stroke-opacity:1; 
stroke-linecap:round; stroke-linejoin:round;fill:none"
d="M 10.4304,4.7511
11.5774,4.7511
11.5774,6.0983
10.4304,6.0983
Z" /> 
<path style="fill:none; 
stroke:#000000; stroke-width:0.1000; stroke-opacity:1; 
stroke-linecap:round; stroke-linejoin:round;fill:none"
d="M 4.5077,13.7233
6.5077,13.7233
6.5077,15.0608
4.5077,15.0608
Z" /> 
<path style="fill:none; 
stroke:#000000; stroke-width:0.1000; stroke-opacity:1; 
stroke-linecap:round; stroke-linejoin:round;fill:none"
d="M 17.4228,7.7619
19.5839,7.7619
19.5839,10.4012
17.4228,10.4012
Z" /> 
<path style="fill:none; 
stroke:#000000; stroke-width:0.1000; stroke-opacity:1; 
stroke-linecap:round; stroke-linejoin:round;fill:none"
d="M 12.4723,16.6905
14.4723,16.6905
14.4723,17.9787
12.4723,17.9787
Z" /> 
<path style="fill:none; 
stroke:#000000; stroke-width:0.1000; stroke-opacity:1; 
stroke-linecap:round; stroke-linejoin:round;fill:none"
d="M 8.4440,13.7548
10.5077,13.7548
10.5077,15.0547
8.4440,15.0547
Z" /> 
<path style="fill:none; 
stroke:#000000; stroke-width:0.1000; stroke-opacity:1; 
stroke-linecap:round; stroke-linejoin:round;fill:none"
d="M 4.4784,16.6772
6.5320,16.6772
6.5320,17.9728
4.4784,17.9728
Z" /> 
<path style="fill:none; 
stroke:#000000; stroke-width:0.1000; stroke-opacity:1; 
stroke-linecap:round; stroke-linejoin:round;fill:none"
d="M 12.4780,13.7652
14.5016,13.7652
14.5016,15.0561
12.4780,15.0561
Z" /> 
<path style="fill:none; 
stroke:#000000; stroke-width:0.1000; stroke-opacity:1; 
stroke-linecap:round; stroke-linejoin:round;fill:none"
d="M 18.7965,13.4973
20.4960,13.4973
20.4960,15.6473
18.7965,15.6473
Z" /> 
<path style="fill:none; 
stroke:#000000; stroke-width:0.1000; stroke-opacity:1; 
stroke-linecap:round; stroke-linejoin:round;fill:none"
d="M 8.4784,16.6965
10.4784,16.6965
10.4784,18.0227
8.4784,18.0227
Z" /> 
<path style="fill:none; 
stroke:#000000; stroke-width:0.1000; stroke-opacity:1; 
stroke-linecap:round; stroke-linejoin:round;fill:none"
d="M 16.4972,13.4973
18.1967,13.4973
18.1967,15.6472
16.4972,15.6472
Z" /> 
<path style="fill:none; 
stroke:#000000; stroke-width:0.1000; stroke-opacity:1; 
stroke-linecap:round; stroke-linejoin:round;fill:none"
d="M 5.4313,4.7540
6.5760,4.7540
6.5760,6.0963
5.4313,6.0963
Z" /> 
<path style="fill:none; 
stroke:#000000; stroke-width:0.1000; stroke-opacity:1; 
stroke-linecap:round; stroke-linejoin:round;fill:none"
d="M 15.5077,3.2330
17.5077,3.2330
17.5077,4.4955
15.5077,4.4955
Z" /> 
</g>
<g style="fill:none; 
stroke:#000000; stroke-width:0.1000; stroke-opacity:1; 
stroke-linecap:round; stroke-linejoin:round;">
<text x="19.5077" y="4.3250"
textLength="1.5762" font-size="1.3333" lengthAdjust="spacingAndGlyphs"
text-anchor="start" opacity="0" stroke-opacity="0">:D</text>
<g class="stroked-text"><desc>:D</desc>
<path d="M19.8116 4.1022
L19.8592 4.1498
" />
<path d="M19.8592 4.1498
L19.8116 4.1974
" />
<path d="M19.8116 4.1974
L19.7640 4.1498
" />
<path d="M19.7640 4.1498
L19.8116 4.1022
" />
<path d="M19.8116 4.1022
L19.8116 4.1974
" />
<path d="M19.8116 3.5784
L19.8592 3.6260
" />
<path d="M19.8592 3.6260
L19.8116 3.6736
" />
<path d="M19.8116 3.6736
L19.7640 3.6260
" />
<path d="M19.7640 3.6260
L19.8116 3.5784
" />
<path d="M19.8116 3.5784
L19.8116 3.6736
" />
<path d="M20.2878 4.1974
L20.2878 3.1974
" />
<path d="M20.2878 3.1974
L20.5259 3.1974
" />
<path d="M20.5259 3.1974
L20.6687 3.2450
" />
<path d="M20.6687 3.2450
L20.7640 3.3403
" />
<path d="M20.7640 3.3403
L20.8116 3.4355
" />
<path d="M20.8116 3.4355
L20.8592 3.6260
" />
<path d="M20.8592 3.6260
L20.8592 3.7688
" />
<path d="M20.8592 3.7688
L20.8116 3.9593
" />
<path d="M20.8116 3.9593
L20.7640 4.0546
" />
<path d="M20.7640 4.0546
L20.6687 4.1498
" />
<path d="M20.6687 4.1498
L20.5259 4.1974
" />
<path d="M20.5259 4.1974
L20.2878 4.1974
" />
</g><text x="7.0077" y="3.3250"
textLength="3.1476" font-size="1.3333" lengthAdjust="spacingAndGlyphs"
text-anchor="start" opacity="0" stroke-opacity="0">SW1</text>
<g class="stroked-text"><desc>SW1</desc>
<path d="M7.2640 3.1498
L7.4068 3.1974
" />
<path d="M7.4068 3.1974
L7.6449 3.1974
" />
<path d="M7.6449 3.1974
L7.7402 3.1498
" />
<path d="M7.7402 3.1498
L7.7878 3.1022
" />
<path d="M7.7878 3.1022
L7.8354 3.0069
" />
<path d="M7.8354 3.0069
L7.8354 2.9117
" />
<path d="M7.8354 2.9117
L7.7878 2.8165
" />
<path d="M7.7878 2.8165
L7.7402 2.7688
" />
<path d="M7.7402 2.7688
L7.6449 2.7212
" />
<path d="M7.6449 2.7212
L7.4544 2.6736
" />
<path d="M7.4544 2.6736
L7.3592 2.6260
" />
<path d="M7.3592 2.6260
L7.3116 2.5784
" />
<path d="M7.3116 2.5784
L7.2640 2.4831
" />
<path d="M7.2640 2.4831
L7.2640 2.3879
" />
<path d="M7.2640 2.3879
L7.3116 2.2927
" />
<path d="M7.3116 2.2927
L7.3592 2.2450
" />
<path d="M7.3592 2.2450
L7.4544 2.1974
" />
<path d="M7.4544 2.1974
L7.6925 2.1974
" />
<path d="M7.6925 2.1974
L7.8354 2.2450
" />
<path d="M8.1687 2.1974
L8.4068 3.1974
" />
<path d="M8.4068 3.1974
L8.5973 2.4831
" />
<path d="M8.5973 2.4831
L8.7878 3.1974
" />
<path d="M8.7878 3.1974
L9.0259 2.1974
" />
<path d="M9.9306 3.1974
L9.3592 3.1974
" />
<path d="M9.6449 3.1974
L9.6449 2.1974
" />
<path d="M9.6449 2.1974
L9.5497 2.3403
" />
<path d="M9.5497 2.3403
L9.4544 2.4355
" />
<path d="M9.4544 2.4355
L9.3592 2.4831
" />
</g></g>
<g style="fill:none; 
stroke:#000000; stroke-width:0.1500; stroke-opacity:1; 
stroke-linecap:round; stroke-linejoin:round;">
<g transform="rotate(-90.000000 3.5077 15.8500)">
<text x="3.5077" y="16.3500"
textLength="2.2024" font-size="1.3333" lengthAdjust="spacingAndGlyphs"
text-anchor="middle" opacity="0" stroke-opacity="0">C2</text>
</g>
<g class="stroked-text"><desc>C2</desc>
<path d="M3.8673 16.0167
L3.9149 16.0643
" />
<path d="M3.9149 16.0643
L3.9625 16.2071
" />
<path d="M3.9625 16.2071
L3.9625 16.3024
" />
<path d="M3.9625 16.3024
L3.9149 16.4452
" />
<path d="M3.9149 16.4452
L3.8197 16.5405
" />
<path d="M3.8197 16.5405
L3.7244 16.5881
" />
<path d="M3.7244 16.5881
L3.5340 16.6357
" />
<path d="M3.5340 16.6357
L3.3911 16.6357
" />
<path d="M3.3911 16.6357
L3.2006 16.5881
" />
<path d="M3.2006 16.5881
L3.1054 16.5405
" />
<path d="M3.1054 16.5405
L3.0101 16.4452
" />
<path d="M3.0101 16.4452
L2.9625 16.3024
" />
<path d="M2.9625 16.3024
L2.9625 16.2071
" />
<path d="M2.9625 16.2071
L3.0101 16.0643
" />
<path d="M3.0101 16.0643
L3.0578 16.0167
" />
<path d="M3.0578 15.6357
L3.0101 15.5881
" />
<path d="M3.0101 15.5881
L2.9625 15.4929
" />
<path d="M2.9625 15.4929
L2.9625 15.2548
" />
<path d="M2.9625 15.2548
L3.0101 15.1595
" />
<path d="M3.0101 15.1595
L3.0578 15.1119
" />
<path d="M3.0578 15.1119
L3.1530 15.0643
" />
<path d="M3.1530 15.0643
L3.2482 15.0643
" />
<path d="M3.2482 15.0643
L3.3911 15.1119
" />
<path d="M3.3911 15.1119
L3.9625 15.6833
" />
<path d="M3.9625 15.6833
L3.9625 15.0643
" />
</g><g transform="rotate(-90.000000 7.4827 15.9000)">
<text x="7.4827" y="16.4000"
textLength="2.2024" font-size="1.3333" lengthAdjust="spacingAndGlyphs"
text-anchor="middle" opacity="0" stroke-opacity="0">C3</text>
</g>
<g class="stroked-text"><desc>C3</desc>
<path d="M7.8423 16.0667
L7.8899 16.1143
" />
<path d="M7.8899 16.1143
L7.9375 16.2571
" />
<path d="M7.9375 16.2571
L7.9375 16.3524
" />
<path d="M7.9375 16.3524
L7.8899 16.4952
" />
<path d="M7.8899 16.4952
L7.7947 16.5905
" />
<path d="M7.7947 16.5905
L7.6994 16.6381
" />
<path d="M7.6994 16.6381
L7.5090 16.6857
" />
<path d="M7.5090 16.6857
L7.3661 16.6857
" />
<path d="M7.3661 16.6857
L7.1756 16.6381
" />
<path d="M7.1756 16.6381
L7.0804 16.5905
" />
<path d="M7.0804 16.5905
L6.9851 16.4952
" />
<path d="M6.9851 16.4952
L6.9375 16.3524
" />
<path d="M6.9375 16.3524
L6.9375 16.2571
" />
<path d="M6.9375 16.2571
L6.9851 16.1143
" />
<path d="M6.9851 16.1143
L7.0328 16.0667
" />
<path d="M6.9375 15.7333
L6.9375 15.1143
" />
<path d="M6.9375 15.1143
L7.3185 15.4476
" />
<path d="M7.3185 15.4476
L7.3185 15.3048
" />
<path d="M7.3185 15.3048
L7.3661 15.2095
" />
<path d="M7.3661 15.2095
L7.4137 15.1619
" />
<path d="M7.4137 15.1619
L7.5090 15.1143
" />
<path d="M7.5090 15.1143
L7.7470 15.1143
" />
<path d="M7.7470 15.1143
L7.8423 15.1619
" />
<path d="M7.8423 15.1619
L7.8899 15.2095
" />
<path d="M7.8899 15.2095
L7.9375 15.3048
" />
<path d="M7.9375 15.3048
L7.9375 15.5905
" />
<path d="M7.9375 15.5905
L7.8899 15.6857
" />
<path d="M7.8899 15.6857
L7.8423 15.7333
" />
</g><g transform="rotate(-90.000000 18.5077 11.8250)">
<text x="18.5077" y="12.3250"
textLength="3.0595" font-size="1.3333" lengthAdjust="spacingAndGlyphs"
text-anchor="middle" opacity="0" stroke-opacity="0">RV1</text>
</g>
<g class="stroked-text"><desc>RV1</desc>
<path d="M18.9625 12.4202
L18.4863 12.7536
" />
<path d="M18.9625 12.9917
L17.9625 12.9917
" />
<path d="M17.9625 12.9917
L17.9625 12.6107
" />
<path d="M17.9625 12.6107
L18.0101 12.5155
" />
<path d="M18.0101 12.5155
L18.0578 12.4679
" />
<path d="M18.0578 12.4679
L18.1530 12.4202
" />
<path d="M18.1530 12.4202
L18.2959 12.4202
" />
<path d="M18.2959 12.4202
L18.3911 12.4679
" />
<path d="M18.3911 12.4679
L18.4387 12.5155
" />
<path d="M18.4387 12.5155
L18.4863 12.6107
" />
<path d="M18.4863 12.6107
L18.4863 12.9917
" />
<path d="M17.9625 12.1345
L18.9625 11.8012
" />
<path d="M18.9625 11.8012
L17.9625 11.4679
" />
<path d="M18.9625 10.6107
L18.9625 11.1821
" />
<path d="M18.9625 10.8964
L17.9625 10.8964
" />
<path d="M17.9625 10.8964
L18.1054 10.9917
" />
<path d="M18.1054 10.9917
L18.2006 11.0869
" />
<path d="M18.2006 11.0869
L18.2482 11.1821
" />
</g><g transform="rotate(-90.000000 11.7221 15.9084)">
<text x="11.7221" y="16.4084"
textLength="2.2024" font-size="1.3333" lengthAdjust="spacingAndGlyphs"
text-anchor="middle" opacity="0" stroke-opacity="0">C1</text>
</g>
<g class="stroked-text"><desc>C1</desc>
<path d="M12.0816 16.0751
L12.1293 16.1227
" />
<path d="M12.1293 16.1227
L12.1769 16.2656
" />
<path d="M12.1769 16.2656
L12.1769 16.3608
" />
<path d="M12.1769 16.3608
L12.1293 16.5037
" />
<path d="M12.1293 16.5037
L12.0340 16.5989
" />
<path d="M12.0340 16.5989
L11.9388 16.6465
" />
<path d="M11.9388 16.6465
L11.7483 16.6941
" />
<path d="M11.7483 16.6941
L11.6054 16.6941
" />
<path d="M11.6054 16.6941
L11.4150 16.6465
" />
<path d="M11.4150 16.6465
L11.3197 16.5989
" />
<path d="M11.3197 16.5989
L11.2245 16.5037
" />
<path d="M11.2245 16.5037
L11.1769 16.3608
" />
<path d="M11.1769 16.3608
L11.1769 16.2656
" />
<path d="M11.1769 16.2656
L11.2245 16.1227
" />
<path d="M11.2245 16.1227
L11.2721 16.0751
" />
<path d="M12.1769 15.1227
L12.1769 15.6941
" />
<path d="M12.1769 15.4084
L11.1769 15.4084
" />
<path d="M11.1769 15.4084
L11.3197 15.5037
" />
<path d="M11.3197 15.5037
L11.4150 15.5989
" />
<path d="M11.4150 15.5989
L11.4626 15.6941
" />
</g><g transform="rotate(-90.000000 9.5077 9.8250)">
<text x="9.5077" y="10.3250"
textLength="2.2500" font-size="1.3333" lengthAdjust="spacingAndGlyphs"
text-anchor="middle" opacity="0" stroke-opacity="0">U1</text>
</g>
<g class="stroked-text"><desc>U1</desc>
<path d="M8.9625 10.5869
L9.7720 10.5869
" />
<path d="M9.7720 10.5869
L9.8673 10.5393
" />
<path d="M9.8673 10.5393
L9.9149 10.4917
" />
<path d="M9.9149 10.4917
L9.9625 10.3964
" />
<path d="M9.9625 10.3964
L9.9625 10.2060
" />
<path d="M9.9625 10.2060
L9.9149 10.1107
" />
<path d="M9.9149 10.1107
L9.8673 10.0631
" />
<path d="M9.8673 10.0631
L9.7720 10.0155
" />
<path d="M9.7720 10.0155
L8.9625 10.0155
" />
<path d="M9.9625 9.0155
L9.9625 9.5869
" />
<path d="M9.9625 9.3012
L8.9625 9.3012
" />
<path d="M8.9625 9.3012
L9.1054 9.3964
" />
<path d="M9.1054 9.3964
L9.2006 9.4917
" />
<path d="M9.2006 9.4917
L9.2482 9.5869
" />
</g><g transform="rotate(-90.000000 14.5077 5.3250)">
<text x="14.5077" y="5.8250"
textLength="2.2024" font-size="1.3333" lengthAdjust="spacingAndGlyphs"
text-anchor="middle" opacity="0" stroke-opacity="0">R1</text>
</g>
<g class="stroked-text"><desc>R1</desc>
<path d="M14.9625 5.4917
L14.4863 5.8250
" />
<path d="M14.9625 6.0631
L13.9625 6.0631
" />
<path d="M13.9625 6.0631
L13.9625 5.6821
" />
<path d="M13.9625 5.6821
L14.0101 5.5869
" />
<path d="M14.0101 5.5869
L14.0578 5.5393
" />
<path d="M14.0578 5.5393
L14.1530 5.4917
" />
<path d="M14.1530 5.4917
L14.2959 5.4917
" />
<path d="M14.2959 5.4917
L14.3911 5.5393
" />
<path d="M14.3911 5.5393
L14.4387 5.5869
" />
<path d="M14.4387 5.5869
L14.4863 5.6821
" />
<path d="M14.4863 5.6821
L14.4863 6.0631
" />
<path d="M14.9625 4.5393
L14.9625 5.1107
" />
<path d="M14.9625 4.8250
L13.9625 4.8250
" />
<path d="M13.9625 4.8250
L14.1054 4.9202
" />
<path d="M14.1054 4.9202
L14.2006 5.0155
" />
<path d="M14.2006 5.0155
L14.2482 5.1107
" />
</g></g>
<g style="fill:none; 
stroke:#000000; stroke-width:0.1200; stroke-opacity:1; 
stroke-linecap:round; stroke-linejoin:round;">
<path d="M4.6077 1.3250
L4.6077 4.6250
" />
<path d="M4.6077 4.6250
L5.2077 4.6250
" />
<path d="M12.4077 4.6250
L11.8077 4.6250
" />
<path d="M12.4077 4.6250
L12.4077 1.3250
" />
<path d="M4.5977 15.1387
L4.5977 16.5613
" />
<path d="M6.4177 15.1387
L6.4177 16.5613
" />
<path d="M8.5727 16.5863
L8.5727 15.1637
" />
<path d="M10.3927 16.5863
L10.3927 15.1637
" />
<path d="M15.8577 9.4450
L16.3677 9.4450
" />
<path d="M15.8577 11.7250
L15.8577 9.4450
" />
<path d="M20.6577 9.4450
L21.1677 9.4450
" />
<path d="M21.1677 9.4450
L21.1677 11.7250
" />
<path d="M12.5727 15.1637
L12.5727 16.5863
" />
<path d="M14.3927 15.1637
L14.3927 16.5863
" />
<path d="M7.4477 7.2650
L11.5677 7.2650
" />
<path d="M7.4477 7.3600
L7.4477 7.2650
" />
<path d="M7.4477 12.3850
L7.4477 12.2900
" />
<path d="M11.5677 7.2650
L11.5677 7.3600
" />
<path d="M11.5677 12.2900
L11.5677 12.3850
" />
<path d="M11.5677 12.3850
L7.4477 12.3850
" />
<path style="fill:#000000; fill-opacity:1.0000; 
stroke:#000000; stroke-width:0.1200; stroke-opacity:1; 
stroke-linecap:round; stroke-linejoin:round;fill-rule:evenodd;"
d="M 6.9077,7.3550
6.6677,7.0250
7.1477,7.0250
Z" /> 
</g>
<g style="fill:none; 
stroke:#000000; stroke-width:0.1200; stroke-opacity:1; 
stroke-linecap:round; stroke-linejoin:round;">
<path d="M1.2377 1.4350
L1.2377 11.5950
" />
<path d="M1.2377 1.4350
L3.7777 1.4350
" />
<path d="M1.2377 11.5950
L3.7777 11.5950
" />
<path d="M3.7777 1.4350
L3.7777 11.5950
" />
<path d="M15.5977 4.5979
L15.5977 6.0521
" />
<path d="M17.4177 4.5979
L17.4177 6.0521
" />
</g> 
</svg>
